<svg width="33" height="32" viewBox="0 0 33 32" fill="none" xmlns="http://www.w3.org/2000/svg">
<g clip-path="url(#clip0_55_1293)">
<path fill-rule="evenodd" clip-rule="evenodd" d="M32.4976 23.8796C32.4976 24.0548 32.4921 24.4346 32.4816 24.7284C32.4559 25.4465 32.3989 26.3734 32.3128 26.7954C32.1834 27.4298 31.9881 28.0287 31.7335 28.5273C31.1399 29.6969 30.1889 30.6469 29.0187 31.2392C28.518 31.4946 27.915 31.6898 27.2768 31.8186C26.8586 31.903 25.9391 31.959 25.2264 31.9855C24.9325 31.9959 24.5524 32.0012 24.3782 32.0012L8.62039 31.9976C8.44516 31.9976 8.06537 31.9924 7.77164 31.9819C7.05353 31.9559 6.12658 31.8992 5.70458 31.8131C5.06992 31.6836 4.47103 31.4881 3.9725 31.2335C2.80273 30.6402 1.85276 29.6891 1.26077 28.5187C1.00543 28.018 0.809933 27.4151 0.681189 26.7768C0.59679 26.3589 0.541001 25.4391 0.515491 24.7265C0.505 24.4327 0.499756 24.0527 0.499756 23.8782L0.502617 8.1204C0.502617 7.94517 0.507862 7.56513 0.518352 7.27164C0.544339 6.5533 0.601082 5.62658 0.687149 5.20435C0.816608 4.56969 1.01187 3.97079 1.26674 3.47251C1.86023 2.303 2.81114 1.35318 3.98132 0.76102C4.48199 0.505678 5.08518 0.310178 5.72318 0.181434C6.14136 0.0970351 7.06092 0.0412458 7.77354 0.0157354C8.06727 0.00524521 8.44754 0 8.62182 0L24.3784 0.00262294C24.5536 0.00262294 24.9334 0.00810656 25.2269 0.0183584C25.9453 0.0443456 26.872 0.101088 27.2942 0.187156C27.9286 0.316615 28.5275 0.512115 29.0261 0.766741C30.1957 1.36007 31.1457 2.31102 31.7378 3.48133C31.9934 3.982 32.1886 4.58519 32.3174 5.22342C32.4018 5.64137 32.4578 6.56117 32.4843 7.27379C32.4947 7.56752 32.5 7.94779 32.5 8.12207L32.4976 23.8796Z" fill="#00AEED"/>
<path fill-rule="evenodd" clip-rule="evenodd" d="M19.4318 13.0814C19.0368 13.3435 18.6442 13.6095 18.254 13.8796C17.5237 14.3845 16.788 14.9138 16.0367 15.4011C15.3508 15.8467 14.7059 16.3519 14.0212 16.7992C13.2835 17.2818 12.374 17.791 11.4647 17.5226C10.1772 17.1411 9.17136 16.9828 8.22724 16.6116C7.28312 16.2404 7.62 15.5997 8.32809 15.2629C9.03618 14.926 16.8612 11.5536 16.8612 11.5536L21.7513 9.53019C22.1758 9.36441 22.5999 9.19752 23.0235 9.02952C23.3096 8.91651 23.5895 8.78967 23.8899 8.72101C24.2299 8.64353 24.6356 8.60776 24.943 8.80636C25.3828 9.09055 25.3824 9.71019 25.3263 10.1701C25.2174 11.0668 25.0827 11.9608 24.9499 12.8544C24.7741 14.0357 24.5934 15.2164 24.408 16.3965C24.2446 17.4441 24.0794 18.4913 23.9125 19.5381C23.7933 20.2937 23.7354 21.0726 23.5749 21.8197C23.5034 22.1576 23.3916 22.4978 23.1992 22.7879C22.3926 24.0039 20.8806 22.9188 20.0521 22.3111C19.3705 21.8104 16.4826 19.9422 15.7673 19.4413C15.512 19.2623 15.3124 18.9497 15.3143 18.6333C15.3182 18.1973 15.6279 17.8675 15.9287 17.5888C16.298 17.2465 16.6797 16.9167 17.0464 16.571L18.6979 15.0135L20.1153 13.6765C20.3766 13.4322 20.6234 13.1728 20.8544 12.8997C20.924 12.817 20.9736 12.7512 20.9805 12.6427C20.9858 12.565 20.9703 12.4887 20.9116 12.4334C20.6947 12.2295 20.425 12.4317 20.2302 12.5571C19.9637 12.7305 19.6975 12.9053 19.4318 13.0814Z" fill="white"/>
</g>
<defs>
<clipPath id="clip0_55_1293">
<rect width="32" height="32" fill="white" transform="translate(0.5)"/>
</clipPath>
</defs>
</svg>
