<svg width="24" height="24" viewBox="0 0 24 24" fill="none" xmlns="http://www.w3.org/2000/svg">
<path d="M4.0332 8.57617C4.25781 7.51172 4.73633 6.11523 5.05859 5.54883C5.32227 5.08984 5.60547 4.88477 6.13281 4.81641C6.875 4.71875 8.53516 4.65039 11.5527 4.65039C14.5801 4.65039 16.2402 4.69922 16.9727 4.81641C17.5 4.89453 17.7734 5.08984 18.0469 5.54883C18.3789 6.10547 18.8281 7.51172 19.082 8.57617C19.1699 8.9375 19.0137 9.07422 18.6426 9.05469C17.0215 8.94727 15.0879 8.84961 11.5527 8.84961C8.02734 8.84961 6.09375 8.94727 4.47266 9.05469C4.0918 9.07422 3.94531 8.9375 4.0332 8.57617ZM4.51172 15.793C3.62305 15.793 2.93945 15.1094 2.93945 14.2207C2.93945 13.3223 3.62305 12.6484 4.51172 12.6484C5.40039 12.6484 6.08398 13.3223 6.08398 14.2207C6.08398 15.1094 5.40039 15.793 4.51172 15.793ZM8.97461 15.4023C8.30078 15.4023 7.8418 14.9434 7.8418 14.2695C7.8418 13.6055 8.30078 13.1465 8.97461 13.1465H14.1406C14.8047 13.1465 15.2637 13.6055 15.2637 14.2695C15.2637 14.9434 14.8047 15.4023 14.1406 15.4023H8.97461ZM18.5938 15.793C17.7051 15.793 17.0312 15.1094 17.0312 14.2207C17.0312 13.3223 17.7051 12.6484 18.5938 12.6484C19.4922 12.6484 20.166 13.3223 20.166 14.2207C20.166 15.1094 19.4922 15.793 18.5938 15.793ZM11.5527 18.4297C14.834 18.4297 19.1992 18.2637 21.0449 18.0488C22.373 17.9023 23.1055 17.1699 23.1055 15.9199V14.2012C23.1055 12.5508 22.7734 11.6328 21.875 10.4609L21.0449 9.39648C20.6934 7.63867 20.0391 5.79297 19.707 5.07031C19.1797 3.9668 18.1738 3.3125 16.875 3.13672C16.2207 3.04883 14.082 3 11.5527 3C9.0332 3 6.89453 3.05859 6.24023 3.13672C4.94141 3.29297 3.92578 3.9668 3.4082 5.07031C3.06641 5.79297 2.42188 7.63867 2.06055 9.39648L1.24023 10.4609C0.332031 11.6328 0 12.5508 0 14.2012V15.9199C0 17.1699 0.742188 17.9023 2.06055 18.0488C3.91602 18.2637 8.27148 18.4297 11.5527 18.4297ZM1.29883 21.1152H2.44141C3.17383 21.1152 3.74023 20.5488 3.74023 19.8262V17.3945L0 15.6172V19.8262C0 20.5488 0.566406 21.1152 1.29883 21.1152ZM20.6641 21.1152H21.8164C22.5488 21.1152 23.1055 20.5488 23.1055 19.8262V15.6172L19.375 17.3945V19.8262C19.375 20.5488 19.9316 21.1152 20.6641 21.1152Z" fill="#33D4A0"/>
</svg>
