<svg width="24" height="24" viewBox="0 0 24 24" fill="none" xmlns="http://www.w3.org/2000/svg">
<path d="M4.99414 17.6621C4.41797 17.6621 4.03711 17.2715 4.03711 16.7246V14.918C4.03711 14.3613 4.41797 13.9805 4.99414 13.9805H7.38672C7.96289 13.9805 8.34375 14.3613 8.34375 14.918V16.7246C8.34375 17.2715 7.96289 17.6621 7.38672 17.6621H4.99414ZM1 10.1621V7.94531H23.9492V10.1621H1ZM4.06641 20.6895H20.8828C22.9336 20.6895 23.9492 19.6836 23.9492 17.6719V7.03711C23.9492 5.02539 22.9336 4.00977 20.8828 4.00977H4.06641C2.02539 4.00977 1 5.02539 1 7.03711V17.6719C1 19.6836 2.02539 20.6895 4.06641 20.6895Z" fill="#33D4A0"/>
</svg>
