<svg width="24" height="24" viewBox="0 0 24 24" fill="none" xmlns="http://www.w3.org/2000/svg">
<path d="M11.3066 22.4102H13.1035C13.6113 22.4102 13.9824 22.1074 14.0898 21.6094L14.5977 19.4609C14.9785 19.334 15.3496 19.1875 15.6719 19.0312L17.5566 20.1836C17.9766 20.4473 18.4551 20.4082 18.8066 20.0566L20.0664 18.8066C20.418 18.4551 20.4668 17.9473 20.1836 17.5273L19.0312 15.6621C19.1973 15.3203 19.3438 14.9688 19.4512 14.6172L21.6191 14.0996C22.1172 13.9922 22.4102 13.6211 22.4102 13.1133V11.3457C22.4102 10.8477 22.1172 10.4766 21.6191 10.3691L19.4707 9.85156C19.3438 9.45117 19.1875 9.08984 19.0508 8.78711L20.2031 6.89258C20.4766 6.47266 20.4473 5.99414 20.0859 5.64258L18.8066 4.38281C18.4453 4.05078 18.0156 3.99219 17.5859 4.23633L15.6719 5.41797C15.3594 5.25195 14.998 5.10547 14.5977 4.97852L14.0898 2.80078C13.9824 2.30273 13.6113 2 13.1035 2H11.3066C10.7988 2 10.4277 2.30273 10.3105 2.80078L9.80273 4.95898C9.42188 5.08594 9.05078 5.23242 8.71875 5.4082L6.82422 4.23633C6.39453 3.99219 5.95508 4.04102 5.59375 4.38281L4.32422 5.64258C3.96289 5.99414 3.92383 6.47266 4.20703 6.89258L5.34961 8.78711C5.22266 9.08984 5.06641 9.45117 4.93945 9.85156L2.79102 10.3691C2.29297 10.4766 2 10.8477 2 11.3457V13.1133C2 13.6211 2.29297 13.9922 2.79102 14.0996L4.95898 14.6172C5.06641 14.9688 5.21289 15.3203 5.36914 15.6621L4.22656 17.5273C3.93359 17.9473 3.99219 18.4551 4.34375 18.8066L5.59375 20.0566C5.94531 20.4082 6.43359 20.4473 6.85352 20.1836L8.72852 19.0312C9.06055 19.1875 9.42188 19.334 9.80273 19.4609L10.3105 21.6094C10.4277 22.1074 10.7988 22.4102 11.3066 22.4102ZM12.2051 15.6523C10.3105 15.6523 8.75781 14.0898 8.75781 12.1953C8.75781 10.3105 10.3105 8.75781 12.2051 8.75781C14.0996 8.75781 15.6523 10.3105 15.6523 12.1953C15.6523 14.0898 14.0996 15.6523 12.2051 15.6523Z" fill="#33D4A0"/>
</svg>
