<svg width="24" height="24" viewBox="0 0 24 24" fill="none" xmlns="http://www.w3.org/2000/svg">
<g clip-path="url(#clip0_1_4747)">
<path d="M-0.0659769 20.9531H2.07783C2.63824 20.9531 3.01186 20.5234 3.01186 19.8887V15.5039C3.01186 14.8691 2.63824 14.4492 2.07783 14.4492H-0.0659769C-0.626391 14.4492 -1 14.8691 -1 15.5039V19.8887C-1 20.5234 -0.626391 20.9531 -0.0659769 20.9531ZM6.59672 20.9531H8.74057C9.30095 20.9531 9.6746 20.5234 9.6746 19.8887V12.457C9.6746 11.8223 9.30095 11.3926 8.74057 11.3926H6.59672C6.03631 11.3926 5.6627 11.8223 5.6627 12.457V19.8887C5.6627 20.5234 6.03631 20.9531 6.59672 20.9531ZM13.2594 20.9531H15.4032C15.9548 20.9531 16.3373 20.5234 16.3373 19.8887V8.92188C16.3373 8.28711 15.9548 7.85742 15.4032 7.85742H13.2594C12.699 7.85742 12.3254 8.28711 12.3254 8.92188V19.8887C12.3254 20.5234 12.699 20.9531 13.2594 20.9531ZM19.9132 20.9531H22.0748C22.6264 20.9531 23 20.5234 23 19.8887V5.06445C23 4.42969 22.6264 4 22.0748 4H19.9132C19.3617 4 18.9792 4.42969 18.9792 5.06445V19.8887C18.9792 20.5234 19.3617 20.9531 19.9132 20.9531Z" fill="#33D4A0"/>
</g>
<defs>
<clipPath id="clip0_1_4747">
<rect width="24" height="24" fill="white"/>
</clipPath>
</defs>
</svg>
